<svg width="30" height="31" viewBox="0 0 30 31" fill="none" xmlns="http://www.w3.org/2000/svg">
<g clip-path="url(#clip0_24_3733)">
<path d="M18.3041 15.5001L29.5207 4.28302C29.8293 3.97424 29.9995 3.56229 30 3.12302C30 2.68351 29.8298 2.27107 29.5207 1.96278L28.5378 0.980092C28.2288 0.67058 27.8168 0.501068 27.3771 0.501068C26.938 0.501068 26.5261 0.67058 26.2171 0.980092L15.0005 12.1964L3.78341 0.980092C3.47488 0.67058 3.06268 0.501068 2.62317 0.501068C2.18415 0.501068 1.77195 0.67058 1.46341 0.980092L0.48 1.96278C-0.16 2.60278 -0.16 3.64375 0.48 4.28302L11.6968 15.5001L0.48 26.7167C0.171219 27.0259 0.00121951 27.4379 0.00121951 27.8772C0.00121951 28.3164 0.171219 28.7284 0.48 29.0374L1.46317 30.0201C1.77171 30.3294 2.18415 30.4991 2.62293 30.4991C3.06244 30.4991 3.47463 30.3294 3.78317 30.0201L15.0002 18.8035L26.2168 30.0201C26.5259 30.3294 26.9378 30.4991 27.3768 30.4991H27.3773C27.8166 30.4991 28.2285 30.3294 28.5376 30.0201L29.5205 29.0374C29.829 28.7286 29.9993 28.3164 29.9993 27.8772C29.9993 27.4379 29.829 27.0259 29.5205 26.7169L18.3041 15.5001Z" fill="#DADADA"/>
</g>
<defs>
<clipPath id="clip0_24_3733">
<rect width="30" height="30" fill="white" transform="translate(0 0.5)"/>
</clipPath>
</defs>
</svg>
