<svg width="842" height="596" viewBox="0 0 842 596" fill="none" xmlns="http://www.w3.org/2000/svg">
<path fill-rule="evenodd" clip-rule="evenodd" d="M446.828 261.636C488.928 211.761 505.371 145.099 468.746 98.6181C482.639 148.227 464.335 185.399 433.155 202.765C395.169 223.917 355.776 225.669 326.927 248.479C290.287 277.422 282.903 318.442 294.511 350.31C303.335 374.622 323.235 393.599 348.329 408.336C345.638 405.755 343.244 402.986 341.179 399.998C338.144 395.633 335.782 390.83 334.17 385.48C330.932 374.951 332.731 357.194 339.255 338.279C344.903 321.852 354.164 304.409 366.727 289.984C377.631 277.484 388.771 266.11 399.08 256.551C410.955 245.522 421.718 236.839 429.728 231.457L429.791 231.41C429.916 231.332 430.041 231.254 430.182 231.191C431.621 230.519 433.389 231.098 434.14 232.49C437.942 239.577 442.401 249.621 446.859 261.667L446.828 261.636ZM442.479 417.144C443.934 415.987 445.311 414.719 446.672 413.358C454.431 405.552 461.143 389 464.209 369.24C466.869 352.062 466.853 332.334 462.488 313.702C459.031 299.043 454.979 285.166 450.802 272.806C469.81 221.711 500.896 201.107 552.524 213.654C491.666 217.095 480.402 261.933 495.28 295.585C514.147 338.279 506.168 373.777 481.027 396.525C470.217 406.318 457.107 412.952 442.495 417.129L442.479 417.144Z" fill="white" stroke="white" stroke-width="26.52" stroke-linecap="round" stroke-linejoin="round"/>
<path fill-rule="evenodd" clip-rule="evenodd" d="M520.53 24.5091C496.39 31.3771 479.995 44.988 470.577 59.5532C439.725 107.317 492.949 160.54 420.326 197.618C447.908 175.809 451.036 154.391 448.58 132.786C445.357 104.516 431.84 74.6504 448.189 47.585C463.599 22.0685 498.08 17.0778 520.546 24.4934L520.53 24.5091Z" fill="white" stroke="white" stroke-width="26.52" stroke-linecap="round" stroke-linejoin="round"/>
<path fill-rule="evenodd" clip-rule="evenodd" d="M328.241 168.331C350.112 142.767 382.294 156.191 387.237 177.796C390.116 190.437 387.409 205.972 381.417 219.098C365.773 224.183 350.785 228.751 337.268 235.853C347.359 222.759 365.554 190.077 359.28 174.558C356.214 166.907 345.81 157.912 328.225 168.331H328.241Z" fill="white" stroke="white" stroke-width="26.52" stroke-linecap="round" stroke-linejoin="round"/>
<path fill-rule="evenodd" clip-rule="evenodd" d="M430.041 418.599L430.839 418.208C435.001 416.049 438.865 413.218 442.401 409.666C449.394 402.626 455.511 387.185 458.421 368.489C461.002 351.953 461.002 332.945 456.794 315.047C452.992 299.027 448.533 284.008 443.965 270.929C439.287 257.584 434.563 246.289 430.479 238.138C427.976 239.921 425.238 241.986 422.313 244.302V254.862C422.985 254.299 423.658 253.767 424.3 253.266C424.503 253.094 424.769 252.953 425.051 252.828C426.552 252.265 428.258 252.969 428.884 254.408C432.185 261.902 436.002 273.104 439.647 286.621C442.807 298.307 445.842 311.777 448.267 326.139C451.068 342.629 450.458 360.245 447.861 375.639C444.857 393.38 439.146 408.368 432.904 415.58C431.966 416.644 431.011 417.661 430.026 418.615L430.041 418.599ZM422.297 417.676V374.45C422.673 372.87 423.017 371.274 423.345 369.663C426.552 354.534 429.024 337.56 429.697 322.087C430.307 308.539 430.495 295.898 430.401 284.978C430.37 281.442 430.292 278.079 430.229 274.918C431.465 278.908 432.732 283.241 433.984 287.872C437.097 299.434 440.116 312.732 442.494 326.859C445.201 342.723 444.575 359.713 442.072 374.575C439.225 391.409 433.999 405.395 428.352 411.903C426.443 414.109 424.425 416.034 422.313 417.661L422.297 417.676ZM422.297 340.157V267.237C422.86 266.298 423.392 265.375 423.924 264.499C424.237 270.194 424.456 277.077 424.534 284.853C424.628 295.663 424.44 308.21 423.83 321.68C423.596 327.672 423.064 333.899 422.297 340.157ZM422.297 244.286C417.619 248.041 412.425 252.421 406.934 257.396V269.145C412.707 263.326 417.932 258.476 422.297 254.831V244.27V244.286ZM422.297 267.237V340.157C421.139 349.763 419.512 359.431 417.619 368.411C414.365 383.79 410.407 397.15 406.934 404.863V295.46C409.343 290.766 411.659 286.339 413.88 282.224C416.9 276.592 419.747 271.555 422.281 267.221L422.297 267.237ZM422.297 374.45C418.855 389.719 414.725 402.657 411.205 409.541C409.813 412.232 408.405 414.657 406.95 416.769V424.231C408.029 424.153 409.124 424.075 410.204 423.95C413.395 422.964 416.399 421.603 419.215 419.851C420.279 419.194 421.296 418.459 422.313 417.676V374.45H422.297ZM406.95 282.788C407.528 281.693 408.107 280.629 408.655 279.581C410.36 276.467 411.956 273.542 413.52 270.788C411.408 272.885 409.218 275.122 406.95 277.5V282.788ZM406.95 257.396C405.729 258.491 404.493 259.665 403.226 260.807C401.818 262.137 400.363 263.466 398.94 264.859V277.531L399.737 276.702C402.194 274.042 404.634 271.508 406.965 269.145V257.396H406.95ZM406.95 277.5V282.788C404.368 287.638 401.693 292.832 398.924 298.339V286.183C400.676 284.211 402.428 282.303 404.134 280.472C405.072 279.455 406.011 278.47 406.934 277.484L406.95 277.5ZM406.95 295.476C404.337 300.591 401.662 306.004 398.924 311.668V417.661C399.393 417.144 399.847 416.597 400.285 416.018C402.194 413.577 404.071 410.605 405.917 407.007C406.261 406.365 406.621 405.63 406.95 404.879V295.476ZM406.95 416.753V424.216C404.916 424.341 402.898 424.404 400.879 424.372H400.363C401.959 422.98 403.508 421.322 405.025 419.366C405.682 418.552 406.308 417.676 406.95 416.753ZM398.924 264.859C390.022 273.385 380.588 283.179 371.295 293.833C359.186 307.71 350.3 324.496 344.871 340.345C338.707 358.242 336.908 374.747 339.818 384.244C341.273 389.031 343.385 393.318 346.076 397.182L346.577 397.901C346.154 396.587 345.779 395.257 345.466 393.865C343.338 384.572 345.278 368.646 350.879 351.562C355.791 336.731 363.473 320.883 373.658 307.585C382.215 296.399 390.914 286.198 398.94 277.515V264.843L398.924 264.859ZM398.924 286.183V298.339C396.64 302.938 394.277 307.741 391.931 312.716C385.313 326.718 379.587 342.879 375.332 357.757C370.482 374.779 367.556 390.157 367.462 398.684C367.431 403.064 367.713 406.913 368.307 410.276C368.777 412.701 369.355 414.892 370.091 416.863L369.653 416.644C366.899 415.236 364.224 413.656 361.611 411.903C359.249 409.541 357.246 406.928 355.557 404.065C353.617 400.733 352.162 396.978 351.176 392.786C349.236 384.4 351.145 369.585 356.48 353.377C361.204 339.03 368.62 323.746 378.382 310.964C385.313 301.968 392.275 293.614 398.924 286.183ZM398.924 311.668V417.661C397.532 419.241 396.077 420.571 394.622 421.634C393.495 422.448 392.4 423.136 391.336 423.668C389.115 423.355 386.909 422.949 384.734 422.432C382.591 421.869 380.479 421.212 378.382 420.445C377.71 419.475 377.053 418.365 376.458 417.113C375.426 414.954 374.612 412.435 374.064 409.494C373.533 406.459 373.251 402.939 373.298 398.903C373.376 390.814 376.239 375.936 380.979 359.322C385.141 344.741 390.773 328.861 397.297 315.078C397.844 313.921 398.392 312.779 398.924 311.652V311.668Z" fill="white"/>
<path d="M422.297 374.45V417.676L422.313 417.661C424.425 416.034 426.443 414.109 428.352 411.903C433.999 405.395 439.225 391.409 442.072 374.575C444.575 359.713 445.201 342.723 442.494 326.859C440.116 312.732 437.097 299.434 433.984 287.872C432.732 283.241 431.465 278.908 430.229 274.918C430.292 278.079 430.37 281.442 430.401 284.978C430.495 295.898 430.307 308.539 429.697 322.087C429.024 337.56 426.552 354.534 423.345 369.663C423.017 371.274 422.673 372.87 422.297 374.45ZM422.297 374.45C418.855 389.719 414.725 402.657 411.205 409.541C409.813 412.232 408.405 414.657 406.95 416.769V424.231C408.029 424.153 409.124 424.075 410.204 423.95C413.395 422.964 416.399 421.603 419.215 419.851C420.279 419.194 421.296 418.459 422.313 417.676V374.45H422.297ZM422.297 340.157V267.237M422.297 340.157C423.064 333.899 423.596 327.672 423.83 321.68C424.44 308.21 424.628 295.663 424.534 284.853C424.456 277.077 424.237 270.194 423.924 264.499C423.392 265.375 422.86 266.298 422.297 267.237M422.297 340.157C421.139 349.763 419.512 359.431 417.619 368.411C414.365 383.79 410.407 397.15 406.934 404.863V295.46C409.343 290.766 411.659 286.339 413.88 282.224C416.9 276.592 419.747 271.555 422.281 267.221L422.297 267.237M406.95 282.788C407.528 281.693 408.107 280.629 408.655 279.581C410.36 276.467 411.956 273.542 413.52 270.788C411.408 272.885 409.218 275.122 406.95 277.5M406.95 282.788V277.5M406.95 282.788C404.368 287.638 401.693 292.832 398.924 298.339M406.95 277.5L406.934 277.484C406.011 278.47 405.072 279.455 404.134 280.472C402.428 282.303 400.676 284.211 398.924 286.183M398.924 298.339V286.183M398.924 298.339C396.64 302.938 394.277 307.741 391.931 312.716C385.313 326.718 379.587 342.879 375.332 357.757C370.482 374.779 367.556 390.157 367.462 398.684C367.431 403.064 367.713 406.913 368.307 410.276C368.777 412.701 369.355 414.892 370.091 416.863L369.653 416.644C366.899 415.236 364.224 413.656 361.611 411.903C359.249 409.541 357.246 406.928 355.557 404.065C353.617 400.733 352.162 396.978 351.176 392.786C349.236 384.4 351.145 369.585 356.48 353.377C361.204 339.03 368.62 323.746 378.382 310.964C385.313 301.968 392.275 293.614 398.924 286.183M398.924 311.668C401.662 306.004 404.337 300.591 406.95 295.476V404.879C406.621 405.63 406.261 406.365 405.917 407.007C404.071 410.605 402.194 413.577 400.285 416.018C399.847 416.597 399.393 417.144 398.924 417.661M398.924 311.668V417.661M398.924 311.668V311.652C398.392 312.779 397.844 313.921 397.297 315.078C390.773 328.861 385.141 344.741 380.979 359.322C376.239 375.936 373.376 390.814 373.298 398.903C373.251 402.939 373.533 406.459 374.064 409.494C374.612 412.435 375.426 414.954 376.458 417.113C377.053 418.365 377.71 419.475 378.382 420.445C380.479 421.212 382.591 421.869 384.734 422.432C386.909 422.949 389.115 423.355 391.336 423.668C392.4 423.136 393.495 422.448 394.622 421.634C396.077 420.571 397.532 419.241 398.924 417.661M430.041 418.599L430.839 418.208C435.001 416.049 438.865 413.218 442.401 409.666C449.394 402.626 455.511 387.185 458.421 368.489C461.002 351.953 461.002 332.945 456.794 315.047C452.992 299.027 448.533 284.008 443.965 270.929C439.287 257.584 434.563 246.289 430.479 238.138C427.976 239.921 425.238 241.986 422.313 244.302V254.862C422.985 254.299 423.658 253.767 424.3 253.266C424.503 253.094 424.769 252.953 425.051 252.828C426.552 252.265 428.258 252.969 428.884 254.408C432.185 261.902 436.002 273.104 439.647 286.621C442.807 298.307 445.842 311.777 448.267 326.139C451.068 342.629 450.458 360.245 447.861 375.639C444.857 393.38 439.146 408.368 432.904 415.58C431.966 416.644 431.011 417.661 430.026 418.615L430.041 418.599ZM422.297 244.286C417.619 248.041 412.425 252.421 406.934 257.396V269.145C412.707 263.326 417.932 258.476 422.297 254.831V244.27V244.286ZM406.95 257.396C405.729 258.491 404.493 259.665 403.226 260.807C401.818 262.137 400.363 263.466 398.94 264.859V277.531L399.737 276.702C402.194 274.042 404.634 271.508 406.965 269.145V257.396H406.95ZM406.95 416.753V424.216C404.916 424.341 402.898 424.404 400.879 424.372H400.363C401.959 422.98 403.508 421.322 405.025 419.366C405.682 418.552 406.308 417.676 406.95 416.753ZM398.924 264.859C390.022 273.385 380.588 283.179 371.295 293.833C359.186 307.71 350.3 324.496 344.871 340.345C338.707 358.242 336.908 374.747 339.818 384.244C341.273 389.031 343.385 393.318 346.076 397.182L346.577 397.901C346.154 396.587 345.779 395.257 345.466 393.865C343.338 384.572 345.278 368.646 350.879 351.562C355.791 336.731 363.473 320.883 373.658 307.585C382.215 296.399 390.914 286.198 398.94 277.515V264.843L398.924 264.859Z" stroke="white" stroke-width="26.52" stroke-linecap="round" stroke-linejoin="round"/>
<path fill-rule="evenodd" clip-rule="evenodd" d="M430.041 418.599L430.839 418.208C435.001 416.049 438.865 413.218 442.401 409.666C449.394 402.626 455.511 387.185 458.421 368.489C461.002 351.953 461.002 332.945 456.794 315.047C452.992 299.027 448.533 284.008 443.965 270.929C439.287 257.584 434.563 246.288 430.479 238.138C423.032 243.426 413.599 251.185 403.226 260.822C393.104 270.256 382.106 281.458 371.311 293.833C359.202 307.71 350.316 324.496 344.887 340.345C338.723 358.242 336.924 374.747 339.834 384.244C341.289 389.031 343.401 393.317 346.092 397.182L346.592 397.901C346.17 396.587 345.795 395.257 345.482 393.865C343.354 384.572 345.294 368.646 350.895 351.562C355.807 336.731 363.489 320.882 373.673 307.584C382.528 296.039 391.493 285.525 399.753 276.686C409.312 266.408 417.932 258.288 424.331 253.219C424.534 253.047 424.8 252.906 425.082 252.781C426.584 252.218 428.289 252.922 428.915 254.361C432.216 261.855 436.033 273.057 439.678 286.574C442.839 298.26 445.874 311.73 448.299 326.092C451.099 342.582 450.489 360.198 447.892 375.592C444.888 393.333 439.178 408.321 432.936 415.533C431.997 416.597 431.043 417.614 430.057 418.568L430.041 418.599ZM394.637 421.619C393.511 422.432 392.416 423.121 391.352 423.653C389.13 423.34 386.924 422.933 384.75 422.417C382.607 421.853 380.494 421.196 378.398 420.43C377.725 419.46 377.068 418.349 376.474 417.097C375.441 414.939 374.628 412.42 374.08 409.479C373.548 406.443 373.267 402.923 373.314 398.887C373.392 390.799 376.255 375.921 380.995 359.306C385.157 344.725 390.789 328.846 397.313 315.063C403.085 302.875 408.796 291.705 413.912 282.209C417.619 275.356 421.014 269.364 423.94 264.468C424.253 270.162 424.472 277.046 424.55 284.821C424.644 295.632 424.456 308.179 423.846 321.649C423.205 336.84 420.764 353.533 417.635 368.395C414.068 385.292 409.625 399.763 405.917 406.975C404.087 410.574 402.194 413.546 400.285 415.987C398.455 418.333 396.577 420.195 394.622 421.603L394.637 421.619ZM405.025 419.382C407.153 416.691 409.203 413.421 411.205 409.541C415.101 401.938 419.7 386.981 423.345 369.663C426.552 354.534 429.024 337.56 429.697 322.087C430.307 308.539 430.495 295.898 430.401 284.978C430.37 281.442 430.292 278.079 430.229 274.918C431.465 278.908 432.732 283.241 433.984 287.872C437.097 299.434 440.116 312.732 442.494 326.859C445.201 342.723 444.575 359.713 442.072 374.575C439.225 391.409 433.999 405.395 428.352 411.903C425.536 415.158 422.485 417.786 419.215 419.835C416.399 421.588 413.395 422.949 410.204 423.934C407.09 424.278 403.962 424.419 400.88 424.372H400.363C401.959 422.98 403.508 421.322 405.025 419.366V419.382ZM370.091 416.863L369.653 416.644C366.899 415.236 364.224 413.656 361.611 411.903C359.249 409.541 357.246 406.928 355.557 404.065C353.617 400.733 352.162 396.978 351.176 392.786C349.236 384.4 351.145 369.584 356.48 353.377C361.205 339.03 368.62 323.745 378.382 310.964C387.128 299.574 395.967 289.233 404.134 280.472C407.403 276.968 410.548 273.729 413.505 270.772C411.94 273.526 410.345 276.452 408.639 279.565C403.461 289.186 397.704 300.466 391.915 312.7C385.297 326.702 379.571 342.863 375.316 357.741C370.466 374.763 367.541 390.142 367.447 398.668C367.416 403.049 367.697 406.897 368.292 410.261C368.761 412.686 369.34 414.876 370.075 416.847L370.091 416.863ZM411.643 429.441C411.236 429.566 410.83 429.676 410.423 429.801C405.792 431.053 401.145 431.725 396.546 431.85C391.899 431.976 387.316 431.506 382.872 430.489L382.763 430.458C378.335 429.285 374.08 427.564 370.028 425.295C366.007 423.027 362.206 420.258 358.701 417.004C358.389 416.706 358.107 416.425 357.81 416.143C355.885 414.829 354.024 413.421 352.209 411.95C347.938 408.462 344.261 404.582 341.211 400.232C338.191 395.868 335.844 391.049 334.217 385.714C331.01 375.185 332.809 357.429 339.302 338.514C344.965 322.087 354.196 304.643 366.79 290.219C377.678 277.719 388.802 266.345 399.127 256.77C410.986 245.741 421.75 237.058 429.775 231.676L429.838 231.629C429.963 231.536 430.088 231.473 430.229 231.41C431.653 230.738 433.436 231.301 434.171 232.709C438.755 241.22 444.231 253.954 449.597 269.286C454.228 282.553 458.765 297.807 462.567 313.968C466.947 332.6 466.963 352.328 464.288 369.491C461.221 389.266 454.494 405.802 446.75 413.609C442.807 417.567 438.489 420.727 433.765 423.152C429.071 425.593 423.987 427.313 418.589 428.393C416.274 428.862 413.99 429.206 411.69 429.472L411.643 429.441Z" fill="white" stroke="white" stroke-width="26.52" stroke-linecap="round" stroke-linejoin="round"/>
<path fill-rule="evenodd" clip-rule="evenodd" d="M669.562 485.809C674.177 490.44 676.555 496.072 676.555 502.643C676.555 509.213 674.224 514.877 669.671 519.617C665.072 524.201 659.455 526.501 652.963 526.501C646.47 526.501 640.948 524.185 636.364 519.617C631.811 514.924 629.605 509.182 629.605 502.643C629.605 496.103 631.827 490.487 636.348 485.84C640.822 481.069 646.376 478.644 652.947 478.644C659.518 478.644 665.056 481.069 669.53 485.809H669.562ZM652.978 461.122C641.48 461.122 631.702 465.111 623.566 473.246C615.415 481.397 611.16 491.113 611.16 502.643C611.16 514.173 615.275 523.873 623.551 531.914C631.702 539.971 641.48 544.039 652.963 544.039C664.446 544.039 674.349 540.081 682.484 531.914C690.839 523.92 695 514.189 695 502.658C695 491.128 690.698 481.382 682.484 473.262C674.318 465.095 664.493 461.137 652.963 461.137L652.978 461.122Z" fill="white" stroke="white" stroke-width="26.52" stroke-linecap="round" stroke-linejoin="round"/>
<path fill-rule="evenodd" clip-rule="evenodd" d="M587.411 544.023H605.888V536.216C605.888 530.209 604.621 524.451 602.07 519.023C599.52 513.531 595.922 508.838 591.323 504.911L589.633 503.472L591.323 502.048C595.906 498.121 599.536 493.444 602.07 487.984C604.621 482.524 605.888 476.735 605.888 470.712V462.373H587.411V470.712C587.411 475.796 585.925 480.333 583.156 484.323H583.907L580.668 487.561C576.069 492.161 570.531 494.711 563.96 494.711H546.735V464.798C546.735 459.901 544.78 455.849 541.369 452.376C537.802 448.794 533.015 447.448 528.134 447.198V544.054H546.735V512.233H563.96C570.468 512.233 576.022 514.767 580.575 519.429C584.986 524.139 587.411 529.739 587.411 536.232V544.039V544.023Z" fill="white" stroke="white" stroke-width="26.52" stroke-linecap="round" stroke-linejoin="round"/>
<path fill-rule="evenodd" clip-rule="evenodd" d="M383.295 574.827C388.16 574.561 392.869 573.2 396.39 569.649C399.816 566.176 401.771 562.124 401.771 557.211V544.007H425.238C436.815 544.007 446.719 540.081 454.932 531.867C463.255 523.888 467.432 514.173 467.432 502.627C467.432 491.081 463.13 481.35 454.932 473.246C446.656 465.205 436.784 461.122 425.238 461.122C413.693 461.122 403.899 465.174 395.717 473.246C387.488 481.335 383.311 491.113 383.311 502.643V574.827H383.295ZM401.896 502.643C401.896 496.135 404.071 490.471 408.608 485.84C413.114 481.069 418.668 478.644 425.223 478.644C431.778 478.644 437.347 481.069 441.806 485.825C446.437 490.44 448.69 496.119 448.69 502.658C448.69 509.198 446.531 514.939 441.947 519.617C437.347 524.217 431.731 526.517 425.238 526.517H401.912V502.643H401.896Z" fill="white" stroke="white" stroke-width="26.52" stroke-linecap="round" stroke-linejoin="round"/>
<path fill-rule="evenodd" clip-rule="evenodd" d="M371.061 544.023V502.643C371.061 491.066 366.758 481.366 358.545 473.262C350.269 465.221 340.444 461.137 328.883 461.137C317.321 461.137 307.606 465.268 299.33 473.262C291.194 481.397 286.955 491.113 286.955 502.658C286.955 514.204 291.054 523.888 299.33 531.914C307.528 540.018 317.368 544.039 328.883 544.039H371.061V544.023ZM352.35 526.501H328.883C322.437 526.501 316.867 524.17 312.315 519.602C307.731 514.924 305.556 509.167 305.556 502.643C305.556 496.119 307.747 490.471 312.299 485.84C316.758 481.069 322.343 478.644 328.898 478.644C335.453 478.644 341.007 481.069 345.466 485.825C350.112 490.44 352.365 496.119 352.365 502.658V526.532L352.35 526.501Z" fill="white" stroke="white" stroke-width="26.52" stroke-linecap="round" stroke-linejoin="round"/>
<path fill-rule="evenodd" clip-rule="evenodd" d="M204.225 542.756H225.299V503.597H236.36C250.424 503.597 261.501 521.15 261.501 533.963V542.756H282.59V533.963C282.59 526.704 281.041 519.711 277.99 513.14C274.924 506.523 270.575 500.797 265.083 496.009L262.346 493.631L265.083 491.238C270.575 486.497 274.924 480.787 277.99 474.216C281.088 467.599 282.59 460.59 282.59 453.299V443.85H261.501V453.299C261.501 465.862 250.111 483.666 236.36 483.666H225.299V463.249C225.299 457.414 223.077 452.611 218.916 448.543C214.989 444.523 209.685 442.88 204.225 442.458V483.666H193.196C175.564 483.666 168.008 469.163 168.008 453.299V443.85H146.95V453.299C146.95 460.605 148.499 467.599 151.628 474.185C154.741 480.756 159.106 486.482 164.613 491.238L167.367 493.631L164.613 496.009C159.106 500.797 154.741 506.554 151.628 513.156C148.515 519.711 146.95 526.673 146.95 533.948V542.74H168.008V533.948C168.008 520.978 178.912 503.581 193.196 503.581H204.225V542.74V542.756Z" fill="white" stroke="white" stroke-width="26.52" stroke-linecap="round" stroke-linejoin="round"/>
<path fill-rule="evenodd" clip-rule="evenodd" d="M496.14 516.269C504.964 516.269 512.176 509.057 512.176 500.218C512.176 491.379 504.964 484.198 496.14 484.198C487.316 484.198 480.089 491.394 480.089 500.218C480.089 509.041 487.301 516.269 496.14 516.269Z" fill="white" stroke="white" stroke-width="26.52" stroke-linecap="round" stroke-linejoin="round"/>
<path fill-rule="evenodd" clip-rule="evenodd" d="M446.07 261.525C488.298 211.497 504.791 144.631 468.055 98.0085C481.99 147.77 463.63 185.055 432.354 202.474C394.253 223.69 354.739 225.447 325.802 248.327C289.05 277.358 281.643 318.504 293.287 350.47C302.138 374.856 322.099 393.891 347.254 408.673C344.555 406.084 342.154 403.307 340.082 400.309C337.038 395.931 334.668 391.113 333.052 385.747C329.804 375.186 331.608 357.374 338.152 338.402C343.817 321.925 353.107 304.428 365.708 289.959C376.646 277.421 387.819 266.013 398.16 256.425C410.071 245.361 420.867 236.652 428.902 231.254L428.965 231.207C429.09 231.128 429.216 231.05 429.357 230.987C430.801 230.312 432.574 230.893 433.327 232.289C437.141 239.398 441.613 249.473 446.085 261.556L446.07 261.525ZM441.707 417.508C443.167 416.347 444.547 415.076 445.913 413.711C453.696 405.88 460.428 389.277 463.504 369.458C466.172 352.227 466.156 332.439 461.778 313.749C458.31 299.045 454.245 285.126 450.056 272.729C469.122 221.477 500.303 200.81 552.088 213.396C491.044 216.848 479.746 261.823 494.669 295.577C513.595 338.402 505.591 374.009 480.373 396.825C469.53 406.649 456.38 413.303 441.723 417.493L441.707 417.508Z" fill="url(#paint0_linear_59_146)"/>
<path fill-rule="evenodd" clip-rule="evenodd" d="M519.997 23.6731C495.783 30.5621 479.338 44.2146 469.891 58.8243C438.945 106.734 492.331 160.119 419.486 197.311C447.152 175.435 450.291 153.952 447.811 132.281C444.579 103.925 431.02 73.9676 447.419 46.8195C462.876 21.225 497.463 16.2191 519.997 23.6574V23.6731Z" fill="url(#paint1_linear_59_146)"/>
<path fill-rule="evenodd" clip-rule="evenodd" d="M327.12 167.934C349.058 142.293 381.338 155.757 386.297 177.428C389.184 190.108 386.469 205.691 380.459 218.857C364.767 223.957 349.733 228.539 336.175 235.663C346.297 222.529 364.547 189.747 358.254 174.18C355.179 166.506 344.743 157.483 327.105 167.934H327.12Z" fill="#F37135"/>
<path fill-rule="evenodd" clip-rule="evenodd" d="M429.232 418.968L430.032 418.575C434.206 416.41 438.082 413.569 441.629 410.007C448.643 402.945 454.779 387.457 457.698 368.704C460.287 352.117 460.287 333.051 456.066 315.099C452.252 299.03 447.78 283.965 443.198 270.846C438.506 257.46 433.767 246.13 429.671 237.954C427.16 239.743 424.414 241.815 421.479 244.137V254.73C422.154 254.165 422.829 253.631 423.472 253.129C423.676 252.956 423.943 252.815 424.226 252.69C425.732 252.125 427.443 252.831 428.07 254.275C431.381 261.791 435.21 273.027 438.867 286.585C442.037 298.308 445.081 311.819 447.513 326.225C450.322 342.765 449.71 360.434 447.105 375.876C444.092 393.671 438.365 408.705 432.103 415.939C431.162 417.006 430.205 418.026 429.216 418.983L429.232 418.968ZM421.464 418.042V374.683C421.84 373.098 422.186 371.498 422.515 369.881C425.732 354.707 428.212 337.68 428.886 322.16C429.498 308.571 429.687 295.891 429.593 284.938C429.561 281.391 429.483 278.017 429.42 274.847C430.66 278.849 431.931 283.196 433.186 287.841C436.309 299.438 439.338 312.776 441.723 326.947C444.438 342.859 443.81 359.901 441.299 374.809C438.443 391.694 433.202 405.723 427.537 412.251C425.622 414.464 423.598 416.394 421.479 418.026L421.464 418.042ZM421.464 340.285V267.142C422.029 266.201 422.562 265.275 423.096 264.396C423.41 270.108 423.629 277.013 423.708 284.812C423.802 295.656 423.614 308.241 423.002 321.752C422.766 327.763 422.233 334.008 421.464 340.285ZM421.464 244.122C416.772 247.888 411.562 252.282 406.054 257.272V269.057C411.844 263.219 417.086 258.355 421.464 254.698V244.106V244.122ZM421.464 267.142V340.285C420.318 349.92 418.671 359.618 416.772 368.626C413.508 384.052 409.537 397.453 406.054 405.19V295.452C408.47 290.744 410.793 286.303 413.021 282.176C416.05 276.527 418.906 271.474 421.448 267.127L421.464 267.142ZM421.464 374.683C418.011 389.999 413.869 402.977 410.338 409.882C408.941 412.581 407.513 415.013 406.069 417.132V424.617C407.152 424.538 408.251 424.46 409.333 424.334C412.535 423.346 415.548 421.981 418.372 420.223C419.439 419.564 420.459 418.826 421.479 418.042V374.683H421.464ZM406.054 282.741C406.634 281.642 407.215 280.575 407.764 279.524C409.475 276.401 411.075 273.467 412.645 270.705C410.526 272.807 408.329 275.051 406.054 277.437V282.741ZM406.054 257.272C404.83 258.37 403.59 259.547 402.319 260.693C400.907 262.027 399.463 263.361 398.019 264.757V277.468L398.819 276.636C401.283 273.969 403.731 271.426 406.069 269.057V257.272H406.054ZM406.054 277.437V282.741C403.464 287.605 400.781 292.815 398.003 298.339V286.146C399.761 284.169 401.519 282.254 403.229 280.418C404.171 279.398 405.112 278.41 406.038 277.421L406.054 277.437ZM406.054 295.467C403.433 300.599 400.75 306.028 398.003 311.709V418.026C398.474 417.508 398.929 416.959 399.369 416.378C401.283 413.93 403.166 410.949 405.018 407.339C405.363 406.696 405.724 405.958 406.054 405.205V295.467ZM406.054 417.116V424.601C404.014 424.727 401.989 424.789 399.965 424.758H399.447C401.048 423.361 402.601 421.698 404.124 419.736C404.783 418.92 405.41 418.042 406.054 417.116ZM398.019 264.757C389.09 273.31 379.628 283.133 370.306 293.82C358.16 307.739 349.247 324.577 343.802 340.474C337.619 358.426 335.814 374.981 338.733 384.507C340.192 389.309 342.311 393.608 345.01 397.484L345.512 398.206C345.088 396.888 344.712 395.554 344.398 394.158C342.264 384.836 344.21 368.861 349.827 351.725C354.755 336.849 362.46 320.952 372.676 307.613C381.26 296.393 389.985 286.162 398.035 277.452V264.741L398.019 264.757ZM398.019 286.146V298.339C395.728 302.953 393.359 307.77 391.005 312.761C384.367 326.805 378.623 343.016 374.355 357.939C369.49 375.013 366.556 390.439 366.462 398.991C366.43 403.385 366.713 407.245 367.309 410.619C367.78 413.051 368.36 415.248 369.098 417.226L368.658 417.006C365.897 415.594 363.213 414.009 360.593 412.251C358.223 409.882 356.214 407.261 354.52 404.389C352.589 401.047 351.114 397.28 350.126 393.075C348.18 384.664 350.094 369.803 355.445 353.545C360.185 339.155 367.623 323.824 377.415 311.003C384.367 301.98 391.35 293.6 398.019 286.146ZM398.019 311.709V418.026C396.623 419.611 395.163 420.945 393.704 422.012C392.574 422.828 391.475 423.518 390.408 424.052C388.18 423.738 385.967 423.33 383.786 422.812C381.636 422.247 379.518 421.588 377.415 420.819C376.74 419.846 376.081 418.732 375.485 417.477C374.449 415.311 373.633 412.785 373.084 409.834C372.55 406.79 372.268 403.259 372.315 399.211C372.393 391.098 375.265 376.174 380.02 359.509C384.194 344.883 389.843 328.955 396.387 315.13C396.936 313.969 397.486 312.823 398.019 311.694V311.709Z" fill="#231F20"/>
<path fill-rule="evenodd" clip-rule="evenodd" d="M429.232 418.968L430.032 418.575C434.206 416.41 438.082 413.569 441.629 410.007C448.643 402.945 454.779 387.457 457.698 368.704C460.287 352.117 460.287 333.051 456.066 315.099C452.252 299.03 447.78 283.965 443.198 270.846C438.506 257.46 433.767 246.13 429.671 237.954C422.201 243.258 412.739 251.042 402.335 260.708C392.182 270.171 381.15 281.407 370.322 293.82C358.176 307.739 349.262 324.577 343.817 340.474C337.634 358.426 335.83 374.981 338.748 384.507C340.208 389.309 342.326 393.608 345.025 397.484L345.528 398.206C345.104 396.888 344.727 395.554 344.414 394.158C342.279 384.836 344.225 368.861 349.843 351.725C354.771 336.849 362.476 320.952 372.691 307.613C381.573 296.032 390.565 285.487 398.851 276.621C408.439 266.311 417.086 258.166 423.504 253.082C423.708 252.909 423.975 252.768 424.257 252.643C425.764 252.078 427.474 252.784 428.102 254.227C431.413 261.744 435.242 272.98 438.898 286.538C442.068 298.261 445.112 311.772 447.545 326.178C450.354 342.718 449.742 360.387 447.137 375.829C444.124 393.624 438.396 408.658 432.135 415.892C431.193 416.959 430.236 417.979 429.247 418.936L429.232 418.968ZM393.704 421.996C392.574 422.812 391.475 423.503 390.408 424.036C388.18 423.722 385.967 423.314 383.786 422.796C381.636 422.232 379.518 421.572 377.415 420.804C376.74 419.831 376.081 418.716 375.485 417.461C374.449 415.295 373.633 412.769 373.084 409.819C372.55 406.774 372.268 403.244 372.315 399.195C372.393 391.082 375.265 376.158 380.02 359.493C384.194 344.867 389.843 328.94 396.387 315.114C402.178 302.89 407.905 291.686 413.037 282.16C416.756 275.287 420.161 269.277 423.096 264.365C423.41 270.077 423.629 276.982 423.708 284.781C423.802 295.624 423.614 308.21 423.002 321.721C422.358 336.958 419.91 353.702 416.772 368.61C413.194 385.558 408.737 400.074 405.018 407.308C403.182 410.917 401.283 413.899 399.369 416.347C397.533 418.701 395.65 420.568 393.688 421.98L393.704 421.996ZM404.139 419.752C406.273 417.053 408.329 413.773 410.338 409.882C414.245 402.255 418.859 387.253 422.515 369.881C425.732 354.707 428.212 337.68 428.886 322.16C429.498 308.571 429.687 295.891 429.592 284.938C429.561 281.391 429.483 278.017 429.42 274.847C430.66 278.849 431.931 283.196 433.186 287.841C436.309 299.438 439.338 312.776 441.723 326.947C444.438 342.859 443.81 359.901 441.299 374.809C438.443 391.694 433.202 405.723 427.537 412.251C424.712 415.515 421.652 418.152 418.372 420.207C415.563 421.965 412.535 423.33 409.333 424.319C406.211 424.664 403.072 424.805 399.981 424.758H399.463C401.063 423.361 402.617 421.698 404.139 419.736V419.752ZM369.082 417.226L368.643 417.006C365.881 415.594 363.197 414.009 360.577 412.251C358.207 409.882 356.199 407.261 354.504 404.389C352.574 401.047 351.099 397.28 350.11 393.075C348.164 384.664 350.078 369.803 355.43 353.545C360.169 339.155 367.607 323.824 377.399 311.003C386.171 299.579 395.038 289.206 403.229 280.418C406.509 276.903 409.663 273.655 412.629 270.689C411.06 273.451 409.459 276.385 407.748 279.508C402.554 289.159 396.779 300.473 390.973 312.745C384.335 326.79 378.592 343 374.323 357.924C369.459 374.997 366.524 390.423 366.43 398.975C366.399 403.369 366.681 407.23 367.278 410.603C367.748 413.036 368.329 415.233 369.066 417.21L369.082 417.226ZM410.761 429.842C410.353 429.968 409.945 430.078 409.537 430.203C404.892 431.459 400.232 432.134 395.618 432.259C390.958 432.385 386.36 431.914 381.903 430.894L381.793 430.862C377.352 429.686 373.084 427.959 369.019 425.684C364.986 423.408 361.173 420.631 357.658 417.367C357.344 417.069 357.062 416.786 356.764 416.504C354.833 415.186 352.966 413.773 351.146 412.298C346.862 408.799 343.174 404.907 340.114 400.545C337.085 396.166 334.731 391.333 333.099 385.982C329.882 375.421 331.687 357.61 338.199 338.638C343.88 322.16 353.139 304.663 365.771 290.195C376.693 277.656 387.85 266.248 398.207 256.644C410.102 245.581 420.899 236.872 428.949 231.473L429.012 231.426C429.137 231.332 429.263 231.269 429.404 231.207C430.832 230.532 432.621 231.097 433.359 232.509C437.957 241.046 443.449 253.819 448.832 269.198C453.477 282.505 458.027 297.806 461.841 314.016C466.235 332.706 466.25 352.494 463.567 369.709C460.491 389.544 453.743 406.131 445.975 413.962C442.021 417.932 437.69 421.102 432.951 423.534C428.243 425.982 423.143 427.708 417.729 428.791C415.406 429.262 413.115 429.607 410.809 429.874L410.761 429.842Z" fill="white"/>
<path fill-rule="evenodd" clip-rule="evenodd" d="M669.484 486.383C674.113 491.028 676.499 496.677 676.499 503.268C676.499 509.859 674.16 515.539 669.594 520.294C664.98 524.892 659.347 527.199 652.834 527.199C646.322 527.199 640.782 524.876 636.184 520.294C631.618 515.586 629.405 509.827 629.405 503.268C629.405 496.708 631.634 491.075 636.169 486.414C640.657 481.628 646.228 479.195 652.818 479.195C659.409 479.195 664.965 481.628 669.453 486.383H669.484ZM652.85 461.62C641.316 461.62 631.508 465.621 623.348 473.781C615.172 481.957 610.904 491.702 610.904 503.268C610.904 514.833 615.031 524.562 623.332 532.628C631.508 540.71 641.316 544.79 652.834 544.79C664.352 544.79 674.286 540.82 682.446 532.628C690.826 524.61 695 514.849 695 503.283C695 491.718 690.685 481.942 682.446 473.797C674.254 465.606 664.4 461.635 652.834 461.635L652.85 461.62Z" fill="#231F20"/>
<path fill-rule="evenodd" clip-rule="evenodd" d="M587.083 544.774H605.616V536.944C605.616 530.918 604.345 525.143 601.787 519.698C599.229 514.19 595.619 509.482 591.006 505.543L589.311 504.099L591.006 502.671C595.604 498.733 599.244 494.041 601.787 488.564C604.345 483.087 605.616 477.281 605.616 471.239V462.875H587.083V471.239C587.083 476.339 585.592 480.89 582.814 484.892H583.568L580.319 488.14C575.706 492.754 570.15 495.312 563.56 495.312H546.282V465.308C546.282 460.396 544.321 456.331 540.9 452.848C537.322 449.254 532.52 447.905 527.624 447.653V544.806H546.282V512.887H563.56C570.088 512.887 575.659 515.429 580.225 520.106C584.65 524.829 587.083 530.447 587.083 536.96V544.79V544.774Z" fill="#231F20"/>
<path fill-rule="evenodd" clip-rule="evenodd" d="M382.342 575.673C387.223 575.406 391.962 574.041 395.477 570.479C398.914 566.995 400.875 562.931 400.875 558.003V544.759H424.414C436.026 544.759 445.96 540.82 454.198 532.581C462.547 524.578 466.737 514.833 466.737 503.252C466.737 491.671 462.421 481.91 454.198 473.781C445.897 465.715 435.995 461.62 424.414 461.62C412.833 461.62 403.009 465.684 394.802 473.781C386.548 481.894 382.358 491.702 382.358 503.268V575.673H382.342ZM401.001 503.268C401.001 496.74 403.182 491.059 407.733 486.414C412.252 481.628 417.823 479.195 424.398 479.195C430.973 479.195 436.56 481.628 441.032 486.398C445.677 491.028 447.937 496.724 447.937 503.283C447.937 509.843 445.771 515.602 441.174 520.294C436.56 524.908 430.926 527.215 424.414 527.215H401.016V503.268H401.001Z" fill="#231F20"/>
<path fill-rule="evenodd" clip-rule="evenodd" d="M370.071 544.774V503.268C370.071 491.655 365.755 481.926 357.517 473.797C349.215 465.731 339.36 461.635 327.764 461.635C316.167 461.635 306.406 465.778 298.121 473.797C289.96 481.957 285.708 491.702 285.708 503.283C285.708 514.864 289.819 524.578 298.121 532.628C306.343 540.757 316.214 544.79 327.764 544.79H370.071V544.774ZM351.287 527.199H327.748C321.283 527.199 315.696 524.861 311.13 520.278C306.532 515.586 304.35 509.811 304.35 503.268C304.35 496.724 306.547 491.059 311.114 486.414C315.586 481.628 321.189 479.195 327.764 479.195C334.339 479.195 339.91 481.628 344.382 486.398C349.043 491.028 351.302 496.724 351.302 503.283V527.23L351.287 527.199Z" fill="#231F20"/>
<path fill-rule="evenodd" clip-rule="evenodd" d="M202.71 543.503H223.848V504.225H234.942C249.05 504.225 260.16 521.832 260.16 534.684V543.503H281.314V534.684C281.314 527.403 279.76 520.388 276.7 513.797C273.625 507.159 269.262 501.416 263.754 496.614L261.008 494.229L263.754 491.828C269.262 487.073 273.625 481.345 276.7 474.754C279.807 468.116 281.314 461.086 281.314 453.773V444.295H260.16V453.773C260.16 466.375 248.736 484.233 234.942 484.233H223.848V463.754C223.848 457.901 221.62 453.083 217.445 449.003C213.507 444.97 208.187 443.322 202.71 442.899V484.233H191.647C173.961 484.233 166.382 469.686 166.382 453.773V444.295H145.26V453.773C145.26 461.102 146.813 468.116 149.952 474.723C153.075 481.314 157.453 487.057 162.977 491.828L165.738 494.229L162.977 496.614C157.453 501.416 153.075 507.191 149.952 513.813C146.829 520.388 145.26 527.371 145.26 534.668V543.488H166.382V534.668C166.382 521.659 177.32 504.209 191.647 504.209H202.71V543.488V543.503Z" fill="#231F20"/>
<path fill-rule="evenodd" clip-rule="evenodd" d="M495.532 516.936C504.383 516.936 511.617 509.702 511.617 500.835C511.617 491.969 504.383 484.766 495.532 484.766C486.682 484.766 479.432 491.985 479.432 500.835C479.432 509.686 486.666 516.936 495.532 516.936Z" fill="#EF4538"/>
<defs>
<linearGradient id="paint0_linear_59_146" x1="406.681" y1="316.166" x2="624.148" y2="-555.993" gradientUnits="userSpaceOnUse">
<stop stop-color="#EE3534"/>
<stop offset="1" stop-color="#F6893A"/>
</linearGradient>
<linearGradient id="paint1_linear_59_146" x1="445.818" y1="182.246" x2="477.188" y2="56.439" gradientUnits="userSpaceOnUse">
<stop stop-color="#EE3534"/>
<stop offset="1" stop-color="#F6893A"/>
</linearGradient>
</defs>
</svg>
