<svg width="18" height="18" viewBox="0 0 18 18" fill="none" xmlns="http://www.w3.org/2000/svg">
<mask id="mask0_19_111" style="mask-type:luminance" maskUnits="userSpaceOnUse" x="0" y="0" width="18" height="18">
<path d="M17.8081 0.531006H0.870117V17.469H17.8081V0.531006Z" fill="white"/>
</mask>
<g mask="url(#mask0_19_111)">
<path d="M9.33933 1.20853C5.04318 1.20853 1.54785 4.70351 1.54785 9C1.54785 13.2965 5.04318 16.7915 9.33933 16.7915C13.6355 16.7915 17.1308 13.2965 17.1308 9C17.1308 4.70351 13.6355 1.20853 9.33933 1.20853ZM13.6534 4.82614L10.235 8.52913C10.3095 8.67039 10.3556 8.82927 10.3556 9C10.3556 9.25746 10.2567 9.49019 10.0988 9.66939L11.3292 11.8845C11.4203 12.0478 11.361 12.2541 11.1978 12.3449C11.1456 12.3741 11.089 12.3876 11.0335 12.3876C10.9142 12.3876 10.799 12.3246 10.7371 12.2131L9.50701 9.99934C9.45213 10.0085 9.39692 10.0163 9.33933 10.0163C8.778 10.0163 8.32305 9.56133 8.32305 9C8.32305 8.43868 8.778 7.98372 9.33933 7.98372C9.48161 7.98372 9.61711 8.01353 9.74008 8.06638L13.1555 4.36611C13.2825 4.22925 13.4966 4.2201 13.6341 4.34714C13.7717 4.47417 13.7801 4.68827 13.6534 4.82614Z" fill="black"/>
</g>
</svg>
