<svg width="17" height="16" viewBox="0 0 17 16" fill="none" xmlns="http://www.w3.org/2000/svg">
<mask id="mask0_19_130" style="mask-type:luminance" maskUnits="userSpaceOnUse" x="0" y="0" width="17" height="16">
<path d="M16.8081 0H0.808105V16H16.8081V0Z" fill="white"/>
</mask>
<g mask="url(#mask0_19_130)">
<path d="M15.8256 11.3001C15.7846 11.2676 12.8081 9.12214 11.9911 9.27614C11.6011 9.34514 11.3781 9.61111 10.9306 10.1436C10.8586 10.2296 10.6856 10.4356 10.5511 10.5821C10.2683 10.4899 9.99244 10.3776 9.72561 10.2461C8.34837 9.57561 7.2356 8.46288 6.56511 7.08564C6.43354 6.81885 6.32125 6.54298 6.22911 6.26014C6.37611 6.12514 6.58211 5.95214 6.67011 5.87814C7.20011 5.43314 7.46661 5.21014 7.53561 4.81914C7.67711 4.00914 5.53311 1.01214 5.51061 0.985137C5.41333 0.846177 5.28638 0.730567 5.13894 0.646687C4.9915 0.562807 4.82726 0.512747 4.65811 0.500137C3.78911 0.500137 1.30811 3.71864 1.30811 4.26064C1.30811 4.29214 1.35361 7.49414 5.30211 11.5106C9.31461 15.4546 12.5161 15.5001 12.5476 15.5001C13.0901 15.5001 16.3081 13.0191 16.3081 12.1501C16.2956 11.9816 16.2459 11.8179 16.1624 11.6709C16.079 11.5239 15.9639 11.3973 15.8256 11.3001Z" fill="black"/>
</g>
</svg>
