<svg width="18" height="18" viewBox="0 0 18 18" fill="none" xmlns="http://www.w3.org/2000/svg">
<mask id="mask0_19_118" style="mask-type:luminance" maskUnits="userSpaceOnUse" x="0" y="0" width="18" height="18">
<path d="M17.4381 0.684982H0.808105V17.315H17.4381V0.684982Z" fill="white"/>
</mask>
<g mask="url(#mask0_19_118)">
<path d="M2.40426 6.49444C2.61463 6.64289 3.24875 7.08378 4.30667 7.81688C5.36462 8.54998 6.17508 9.11445 6.73809 9.51032C6.79994 9.55371 6.93136 9.64804 7.13239 9.79343C7.33347 9.93892 7.50054 10.0565 7.63348 10.1462C7.76652 10.2358 7.92735 10.3364 8.11614 10.4477C8.30486 10.5589 8.48275 10.6426 8.64979 10.698C8.81686 10.7538 8.97152 10.7815 9.11379 10.7815H9.12312H9.13248C9.27475 10.7815 9.42947 10.7538 9.59654 10.698C9.76352 10.6426 9.94158 10.5588 10.1301 10.4477C10.3188 10.3363 10.4796 10.2358 10.6127 10.1462C10.7457 10.0565 10.9126 9.93892 11.1138 9.79343C11.3148 9.64791 11.4464 9.55371 11.5082 9.51032C12.0773 9.11445 13.5251 8.10906 15.8513 6.49425C16.3029 6.17886 16.6802 5.7983 16.9833 5.35283C17.2866 4.90755 17.4381 4.44043 17.4381 3.95173C17.4381 3.54335 17.2911 3.19376 16.9972 2.90301C16.7033 2.6122 16.3553 2.46687 15.9533 2.46687H2.29287C1.81652 2.46687 1.44994 2.6277 1.19318 2.94936C0.936465 3.27109 0.808105 3.67323 0.808105 4.15576C0.808105 4.54552 0.978298 4.96788 1.31852 5.42258C1.65871 5.87731 2.02074 6.23463 2.40426 6.49444Z" fill="black"/>
<path d="M16.51 7.48732C14.481 8.86066 12.9403 9.92797 11.8886 10.689C11.536 10.9488 11.2499 11.1515 11.0302 11.2968C10.8105 11.4422 10.5184 11.5907 10.1533 11.7422C9.78832 11.8939 9.44819 11.9696 9.13261 11.9696H9.12315H9.11382C8.7983 11.9696 8.45798 11.8939 8.09303 11.7422C7.72807 11.5907 7.43569 11.4422 7.21606 11.2968C6.99649 11.1515 6.71033 10.9488 6.35772 10.689C5.52246 10.0766 3.98507 9.00921 1.7455 7.48732C1.39276 7.25238 1.08033 6.98309 0.808105 6.67998V14.0482C0.808105 14.4568 0.953432 14.8062 1.24425 15.097C1.535 15.3878 1.88461 15.5332 2.29297 15.5332H15.9534C16.3617 15.5332 16.7112 15.3878 17.002 15.097C17.2929 14.8061 17.4382 14.4568 17.4382 14.0482V6.67998C17.1721 6.97681 16.8628 7.24611 16.51 7.48732Z" fill="black"/>
</g>
</svg>
