<svg width="17" height="16" viewBox="0 0 17 16" fill="none" xmlns="http://www.w3.org/2000/svg">
<mask id="mask0_19_124" style="mask-type:luminance" maskUnits="userSpaceOnUse" x="0" y="0" width="17" height="16">
<path d="M16.8081 0H0.808105V16H16.8081V0Z" fill="white"/>
</mask>
<g mask="url(#mask0_19_124)">
<path d="M8.80764 4.57764e-05C5.74608 4.57764e-05 3.25537 2.49112 3.25537 5.55276C3.25537 8.49985 8.29304 15.3853 8.50754 15.6769L8.70773 15.9493C8.71922 15.965 8.73426 15.9778 8.75162 15.9866C8.76898 15.9954 8.78817 16 8.80764 16C8.8272 16.0001 8.8465 15.9955 8.86396 15.9867C8.88142 15.9779 8.89657 15.9651 8.90816 15.9493L9.10822 15.6769C9.32285 15.3853 14.3604 8.49985 14.3604 5.55276C14.3604 2.49112 11.8693 4.57764e-05 8.80764 4.57764e-05ZM8.80764 3.56379C9.9046 3.56379 10.7966 4.45583 10.7966 5.55276C10.7966 6.64912 9.90456 7.54173 8.80764 7.54173C7.71132 7.54173 6.81867 6.64912 6.81867 5.55276C6.81867 4.45583 7.71128 3.56379 8.80764 3.56379Z" fill="black"/>
</g>
</svg>
