<svg width="21" height="21" viewBox="0 0 21 21" fill="none" xmlns="http://www.w3.org/2000/svg">
<mask id="mask0_19_151" style="mask-type:luminance" maskUnits="userSpaceOnUse" x="0" y="0" width="21" height="21">
<path d="M20.5 0.5H0.5V20.5H20.5V0.5Z" fill="white"/>
</mask>
<g mask="url(#mask0_19_151)">
<path d="M5.51167 7.17178C5.60689 6.41867 6.58564 5.39512 7.3624 5.50869L7.36116 5.50745C8.11709 5.6511 8.71549 6.95217 9.05292 7.53721C9.292 7.96168 9.13675 8.39175 8.91375 8.57322C8.61292 8.81569 8.14249 9.15025 8.24119 9.48617C8.41667 10.0833 10.5 12.1667 11.5247 12.7589C11.9125 12.9831 12.1938 12.3918 12.4339 12.0889C12.6084 11.8559 13.0388 11.7167 13.4623 11.9467C14.0948 12.315 14.6907 12.7431 15.2417 13.225C15.5168 13.455 15.5814 13.7949 15.3908 14.1542C15.0549 14.7869 14.0836 15.6213 13.3785 15.4517C12.147 15.1557 7.16667 13.225 5.56694 7.63168C5.47698 7.36707 5.49963 7.26703 5.51167 7.17178Z" fill="black"/>
<path fill-rule="evenodd" clip-rule="evenodd" d="M10.5 19.6667C9.48031 19.6667 8.91615 19.5573 7.99998 19.25L6.24534 20.1273C5.13716 20.6814 3.83331 19.8756 3.83331 18.6366V16.75C2.03877 15.0767 1.33331 13.1473 1.33331 10.5C1.33331 5.43739 5.43737 1.33334 10.5 1.33334C15.5626 1.33334 19.6666 5.43739 19.6666 10.5C19.6666 15.5626 15.5626 19.6667 10.5 19.6667ZM5.49998 16.0253L4.96994 15.531C3.5757 14.231 2.99998 12.7776 2.99998 10.5C2.99998 6.35787 6.35785 3 10.5 3C14.6421 3 18 6.35787 18 10.5C18 14.6422 14.6421 18 10.5 18C9.67856 18 9.29331 17.9258 8.52994 17.6698L7.8737 17.4498L5.49998 18.6366V16.0253Z" fill="black"/>
</g>
</svg>
