<svg width="21" height="21" viewBox="0 0 21 21" fill="none" xmlns="http://www.w3.org/2000/svg">
<mask id="mask0_19_144" style="mask-type:luminance" maskUnits="userSpaceOnUse" x="0" y="0" width="21" height="21">
<path d="M20.5 0.5H0.5V20.5H20.5V0.5Z" fill="white"/>
</mask>
<g mask="url(#mask0_19_144)">
<path d="M14.9805 0.5H6.01913C2.97588 0.5 0.5 2.976 0.5 6.01924V14.9806C0.5 18.024 2.97588 20.4999 6.01913 20.4999H14.9805C18.024 20.4999 20.4999 18.0239 20.4999 14.9806V6.01924C20.5 2.976 18.024 0.5 14.9805 0.5ZM18.7255 14.9806C18.7255 17.0455 17.0455 18.7254 14.9806 18.7254H6.01913C3.95433 18.7255 2.27449 17.0455 2.27449 14.9806V6.01924C2.27449 3.95445 3.95433 2.27449 6.01913 2.27449H14.9805C17.0454 2.27449 18.7254 3.95445 18.7254 6.01924L18.7255 14.9806Z" fill="black"/>
<path d="M10.5 5.34673C7.6583 5.34673 5.3465 7.65853 5.3465 10.5002C5.3465 13.3417 7.6583 15.6534 10.5 15.6534C13.3416 15.6534 15.6534 13.3417 15.6534 10.5002C15.6534 7.65853 13.3416 5.34673 10.5 5.34673ZM10.5 13.8788C8.63687 13.8788 7.12098 12.3632 7.12098 10.5001C7.12098 8.63686 8.63675 7.1211 10.5 7.1211C12.3632 7.1211 13.8789 8.63686 13.8789 10.5001C13.8789 12.3632 12.3631 13.8788 10.5 13.8788Z" fill="black"/>
<path d="M15.8695 3.84207C15.5276 3.84207 15.1918 3.98048 14.9503 4.22299C14.7077 4.46432 14.5682 4.80029 14.5682 5.14336C14.5682 5.48536 14.7078 5.82122 14.9503 6.06373C15.1917 6.30506 15.5276 6.44465 15.8695 6.44465C16.2126 6.44465 16.5474 6.30506 16.7899 6.06373C17.0324 5.82122 17.1708 5.48525 17.1708 5.14336C17.1708 4.80029 17.0324 4.46432 16.7899 4.22299C16.5486 3.98048 16.2126 3.84207 15.8695 3.84207Z" fill="black"/>
</g>
</svg>
