<svg width="21" height="21" viewBox="0 0 21 21" fill="none" xmlns="http://www.w3.org/2000/svg">
<mask id="mask0_19_136" style="mask-type:luminance" maskUnits="userSpaceOnUse" x="0" y="0" width="21" height="21">
<path d="M20.5 0.5H0.5V20.5H20.5V0.5Z" fill="white"/>
</mask>
<g mask="url(#mask0_19_136)">
<path fill-rule="evenodd" clip-rule="evenodd" d="M17.1666 1.33334C18.5474 1.33334 19.6666 2.45264 19.6666 3.83335V17.1667C19.6666 18.5474 18.5474 19.6667 17.1666 19.6667H3.83331C2.4526 19.6667 1.33331 18.5474 1.33331 17.1667V3.83335C1.33331 2.45264 2.4526 1.33334 3.83331 1.33334H17.1666ZM17.1666 3.00001C17.6269 3.00001 18 3.37311 18 3.83335V17.1667C18 17.6269 17.6269 18 17.1666 18H13V12.1666H14.7301C15.0888 12.1666 15.4072 11.9371 15.5207 11.5968L15.8899 10.4893C16.0248 10.0845 15.7236 9.66659 15.297 9.66659H13V7.99995C13 7.58328 13.4166 7.16661 13.8333 7.16661H15.5C15.9602 7.16661 16.3333 6.79351 16.3333 6.33328V5.76162C16.3333 5.49244 16.1614 5.2511 15.9011 5.1824C14.8087 4.89414 13.8333 4.89414 13.8333 4.89414C11.75 4.89414 10.5 6.33328 10.5 7.58328V9.66659H8.83331C8.37308 9.66659 7.99998 10.0397 7.99998 10.4999V11.3333C7.99998 11.7935 8.37307 12.1666 8.83331 12.1666H10.5V18H3.83331C3.37308 18 2.99998 17.6269 2.99998 17.1667V3.83335C2.99998 3.37311 3.37308 3.00001 3.83331 3.00001H17.1666Z" fill="black"/>
</g>
</svg>
